EMG
version=1
nRows=38
nColumns=17
inDegrees=no
endheader
time	EMG01_right_gast_med	EMG02_right_glut_max	EMG03_left_gast_med	EMG04_left_glut_max	EMG05_right_glut_med	EMG06_right_bic_fem	EMG07_right_rect_fem	EMG08_right_vast_lat	EMG09_right_vast_med	EMG10_right_tens_fasc_lat	EMG11_left_glut_med	EMG12_left_bic_fem	EMG13_left_rect_fem	EMG14_left_vast_lat	EMG15_left_vast_med	EMG16_left_tens_fasc_lat
      0.00000000	    126.67204285	    -90.37976074	     -9.23833179	   -285.57250977	    -96.36035919	    -33.73233414	      6.37692261	     21.62541771	    -18.60759735	    -56.53635406	      6.37825155	      8.79391479	     -7.92912817	     -2.77272534	     -6.17550659	    200.09786987
      0.01000000	    100.47798157	    -93.28930664	     -4.16818237	   -286.50299072	    -78.68501282	     -3.65954161	     -2.98135996	     13.09294891	    -29.91027832	    -50.20303345	      3.22265625	      9.11398411	      2.31610274	      1.84060764	      2.64117098	    127.43550873
      0.02000000	    107.74966431	    -81.22461700	    -18.44365692	   -127.21300507	     39.10529709	    -35.82398224	    -18.59346008	    -12.48538685	    -32.10717773	    -37.29954147	     -3.17339087	     -2.21087885	     -4.36321163	     18.69187546	     -8.66547203	     17.43193817
      0.03000000	   -215.92893982	    -39.98390961	     -7.11168432	    -23.61275291	     28.89558792	     19.21729469	     11.94566917	      9.52018166	    -19.67570114	    -35.38715363	     13.54295540	     13.36501980	     -6.25805521	    -23.88567352	     -9.54743767	    -64.75524902
      0.04000000	   -214.16973877	    -12.94147491	     -5.91061354	     11.55848503	     47.02815247	      3.84235764	      4.35736609	     -5.24429941	    -10.55315304	    -47.17522049	    -15.31160259	     24.25916100	     -4.07219219	      1.72200775	     25.17525291	    -50.10572433
      0.05000000	    -71.10886383	      8.40538311	    -19.61545944	     30.84613991	    -91.85530090	    -33.69951248	     -2.69168615	    -12.80015659	     25.94635010	    -16.09544563	    -14.11354351	    -14.31219196	     -4.74016523	     -1.27494800	     -6.96050739	    -46.62168884
      0.06000000	    131.16567993	     25.79557800	     -9.34680557	     68.00044250	    -52.20125580	     17.37479210	     -0.98952270	    -16.92392349	     48.05501175	    -34.84086609	     14.70834732	    -52.41794968	     13.38420868	     18.81806946	      1.72051072	    -29.95508385
      0.07000000	   -284.22885132	     16.48994255	     -2.92333508	    100.70520782	    -62.76924133	    109.99043274	      2.99191594	    -19.05145454	     44.91752243	    -42.74295425	    -17.87765884	    -19.09316254	    -25.83884811	    -30.27280235	     21.16036606	     -3.73647881
      0.08000000	   -435.40472412	     14.61118889	     -2.54830122	    128.72302246	     70.09515381	     24.18935585	     -7.17472029	    -13.74469948	     25.15254974	    -34.97163773	    -20.18963432	     -7.84167862	     26.28592110	    -45.38056183	     55.56184387	     71.35394287
      0.09000000	    332.63452148	     14.58485413	     -3.85638356	    162.40640259	     19.06942749	    -82.59509277	     -2.76052380	     -9.52879238	     29.44520569	    -22.06076241	     18.16296959	      6.91323805	    -57.16056824	    -32.43973541	    -10.12716198	    117.49382782
      0.10000000	   -105.37750244	     25.28524017	     -2.96281195	     86.42262268	     83.92878723	     30.43631935	     20.82414818	      3.43305421	     12.25326157	     -6.92626095	      1.65351701	    -16.50558853	     -2.34640598	   -124.77586365	     -9.16442871	    142.71966553
      0.11000000	    138.79924011	     33.06813812	    -35.12008286	      1.13667154	     88.64694214	     16.65210915	     -1.92359972	     11.59468746	     -0.63250768	    -29.48839951	     25.84292603	      1.91345215	    -18.72154236	    -24.93218994	     30.05188751	    114.12527466
      0.12000000	   -122.43500519	     32.62525940	      8.93520546	     -3.50711870	    142.54090881	      7.17619705	    -25.41261292	     -6.94979191	    -18.96185303	    -33.89218903	      3.46352887	    -11.44069290	    -57.20534134	    -44.66475296	    -34.08890915	   -121.20546722
      0.13000000	    -70.41371918	     23.13859940	      3.07694578	    -29.46798897	     66.05477905	     -6.63048077	     23.69720078	    -25.18770599	    -43.70379639	    -58.04856110	    -32.87890625	    -49.33828354	    -18.16277313	     15.12902546	    106.45635986	   -205.34878540
      0.14000000	     11.86344528	     18.09546852	      1.53641582	    -11.12607193	      1.92488122	    -15.45991707	     74.40931702	    -21.81687546	    -69.41638947	    -20.39028358	     31.42228699	     30.71022797	    -46.93657303	     72.85003662	     85.91056824	   -276.59808350
      0.15000000	   -105.18877411	     12.47600269	      2.59089804	     35.72383118	     60.15117645	    -11.73567677	    -65.52504730	    -21.66032600	    -65.97921753	     21.24987793	     18.09329987	    -34.90956879	    -41.25221252	    103.22055054	    116.99716187	   -333.47271729
      0.16000000	     29.84350204	     10.61610413	     -5.18831205	     -6.57679796	     71.62014771	    -15.15579414	     32.86213303	    -19.32919693	    -47.77833557	    -41.44319534	    -30.15030289	     43.27464294	    -14.38199711	    -42.36261749	     24.00504875	   -282.35818481
      0.17000000	    111.18701935	      8.11534500	      4.83951092	    -89.69139862	    -30.46571159	    -16.45869446	    -43.15698242	    -17.32267380	    -30.83887672	    -11.68956947	    -52.90510559	      1.78487074	    -37.23743439	      2.48340368	     24.95631599	   -140.10707092
      0.18000000	     10.07019711	      3.97847557	     14.40222549	    -47.03090286	    -18.32821655	    -13.09158802	      5.23594856	     -5.33714724	    -29.45726204	     21.50181961	     20.53858566	     -9.56680775	    -12.13661575	     68.07880402	    -68.13087463	     39.68023682
      0.19000000	     11.62024117	      3.19740438	     -4.90484142	    -68.54604340	     14.70826817	    -15.51528931	      3.54513311	     -0.70766979	    -32.85063553	     97.07354736	     -7.55769968	      6.17032576	      4.49492502	     29.73735619	   -116.27101898	     86.55785370
      0.20000000	      0.78788567	     -6.92213392	      9.65635681	    -48.34529114	    -28.70363235	    -14.17937851	     -5.04074430	     -3.95967460	    -17.86272430	    255.54441833	     13.31205750	     55.48291779	      9.25085258	      7.50315762	    -54.64262390	     96.39359283
      0.21000000	     -2.49251103	     -6.41883087	     44.56729126	    104.94765472	    372.92227173	      1.38208938	      9.56524944	     -7.41594982	    -24.76420975	    210.74943542	    110.39987183	      1.27812576	     16.27355957	    -36.54182816	    -47.59312820	    105.78248596
      0.22000000	      4.74405956	      9.30206108	    -42.80057526	     98.96421051	    466.92028809	     -0.04777253	     -9.90630913	     -1.09707034	     -2.25289226	    -74.22598267	    -37.64336014	     41.23022461	    -29.04056931	    -36.18384552	    -20.58998489	     55.53892899
      0.23000000	    -10.78898239	     10.89424706	    -95.64928436	    232.41250610	    -88.64199066	     -6.65972948	     -3.76229763	     -4.83983707	     21.70078850	   -237.62612915	     67.25150299	      3.22060156	     43.13001251	    -84.56362915	   -110.18876648	   -119.77693939
      0.24000000	     -6.15354347	      8.91353607	    -10.72373486	    109.38555145	   -556.88586426	     -6.98300695	     -5.86365271	     -8.25133419	     27.85027504	   -150.41943359	     47.41518402	      8.05355167	     65.72992706	    -57.61654663	     30.94763374	   -203.79698181
      0.25000000	    -13.36092377	     15.15569973	     15.50849438	   -127.22295380	   -391.95800781	     14.63042068	      3.47357082	     -0.70603359	     63.79820633	    -52.68502426	     31.11230850	     -3.13227892	    -22.43291473	     -9.07449532	    137.92594910	    -84.81043243
      0.26000000	    -14.13309002	     12.33751869	     11.77001381	   -194.26177979	    187.28337097	     15.97305489	     10.24499607	      4.98928308	     64.74970245	    -15.31316662	     24.63409424	      1.05267239	      4.02712059	    180.46823120	     78.42439270	   -122.51013184
      0.27000000	     -8.51180840	     10.96448421	     12.91124249	   -168.70018005	    349.25933838	     26.61149406	     -6.22724533	      6.29068184	     21.75213623	     12.24831486	    -29.65493965	    -26.26337814	     26.42514420	    -34.88620377	    -13.26014137	   -421.85552979
      0.28000000	      4.54193449	     -8.01384258	   -141.26237488	    -82.97616577	    -15.69915771	     13.00705338	    -13.11154747	      9.06057644	     -7.12383223	     29.11279488	    -22.93272781	    -13.35954762	     10.62751770	      3.98268247	    265.42352295	   -104.00236511
      0.29000000	     18.14289284	     -2.04273415	    -58.02140045	    -48.50988770	   -328.26873779	     21.82180214	    -20.05727768	      5.95489407	     -0.75604534	     22.24521255	     33.12920761	    -11.98425293	    -16.59011078	     61.88766861	    251.63793945	    187.58857727
      0.30000000	     17.61258507	     21.50116158	    -26.05225754	      7.49878550	   -283.82006836	      7.84843445	     -9.87391090	     11.17236519	     29.01748276	      6.97035217	    -12.31126976	     13.69176292	      5.52988863	     91.55545807	    133.60501099	    206.28961182
      0.31000000	      9.05168343	     67.61684418	     -8.37981415	    112.82907867	    149.27761841	     -3.84459877	     20.79432678	     39.24691772	     73.00304413	     17.84708977	    -14.32336235	     39.74480057	     18.59611893	     -5.80159712	     -3.36408186	    268.89959717
      0.32000000	    -12.70574379	    104.58647156	      5.67685223	    170.61131287	    529.53247070	      2.16056633	    -40.65101242	     37.36462402	     57.16712570	    -41.10735703	      5.91065598	     38.16856384	      7.15026855	    -42.50050354	   -242.24296570	    235.40858459
      0.33000000	    -32.85565186	     62.47890472	      1.39262283	    149.61332703	    304.59689331	     17.59990120	    -18.05828476	     -6.48627424	    -10.24956608	    -47.38631058	      5.98641777	      6.49046898	     21.22422218	    -73.18820190	   -497.36529541	    132.65174866
      0.34000000	    -53.93330765	    -95.78017426	      0.32375288	     54.84069061	   -171.61132812	    -43.68712616	     -0.29966858	    -36.39343262	   -130.89974976	    -38.99808502	      4.29065228	     -4.36532545	     28.02582169	    -39.90441895	   -249.49305725	     91.65706635
      0.35000000	    -72.15935516	   -249.33471680	      9.45590210	    -28.94528580	   -349.59558105	    -49.17430115	     13.48276424	    -43.24980927	   -141.98101807	    -35.91023254	    -12.84632587	    -10.55130482	     35.09068680	     17.06336212	     -5.92552662	     43.22381592
      0.36000000	    -58.77500153	   -365.36972046	    -47.30708694	   -102.27287292	   -264.10516357	    -50.69229507	     13.98937130	    -58.45816040	    -95.86267090	    -20.11745262	      9.64651966	    -13.22891426	     25.85820007	     24.87026024	     -5.61675215	     95.85785675
      0.37000000	    -44.80389404	   -277.59262085	     89.69027710	   -158.18759155	    -92.86982727	    -51.47491837	     13.51995182	    -44.65068054	    -64.92041779	   -113.29180908	     -7.65420008	    -11.35453415	     18.20189476	    -16.90660095	   -122.72407532	    176.78958130
